<svg width="69" height="50" viewBox="0 0 69 50" fill="none" xmlns="http://www.w3.org/2000/svg">
<path d="M21.8435 33.0279L24.075 40.2685C24.5764 41.9125 24.7855 43.0601 24.7018 43.7142C25.9222 40.4455 26.775 36.8834 27.2601 33.0279H29.9434C28.7897 39.3046 27.2679 43.8658 25.379 46.7111C23.9073 48.9038 22.295 50.0001 20.5393 50.0001C20.0712 50.0001 19.4941 49.8587 18.8093 49.5779V48.0648C19.1439 48.1139 19.5364 48.1401 19.9879 48.1401C20.8069 48.1401 21.467 47.9131 21.9693 47.4601C22.5706 46.9081 22.8717 46.2876 22.8717 45.6C22.8717 45.1304 22.6369 44.1668 22.1695 42.7092L19.0603 33.0279H21.8434H21.8435ZM4.76467 28.5776L8.85199 41.0484H8.87723L12.9897 28.5776H16.3496C17.0853 34.7623 17.5198 40.421 17.6532 45.5502H14.8205C14.7208 40.7554 14.4447 36.2467 13.9933 32.0233H13.9686L9.65497 45.5502H7.49773L3.2102 32.0233H3.18496C2.86686 36.0794 2.66666 40.5881 2.58319 45.5502H0C0.166935 39.5153 0.584702 33.8583 1.2533 28.5776H4.76481H4.76467Z" fill="#273759"/>
<path d="M45.5536 28.3258C49.9503 28.3258 52.1487 31.1347 52.1487 36.7499C52.1487 39.8012 51.4875 42.106 50.1665 43.663C49.9285 43.9476 49.6653 44.1934 49.3882 44.4211L52.4996 45.9595L52.4966 45.9594L51.3919 47.8671L47.34 45.5029C46.6684 45.7018 45.9293 45.8012 45.1241 45.8012C42.9652 45.8012 41.3527 45.172 40.2865 43.9153C39.1163 42.525 38.5314 40.3364 38.5314 37.3531C38.5314 34.319 39.1914 32.0229 40.5128 30.4639C41.7164 29.0377 43.3969 28.3257 45.5536 28.3257V28.3258ZM32.0898 28.3505C33.6612 28.3505 35.09 28.771 36.377 29.609L35.7234 31.0656C34.6221 30.5975 33.5363 30.3625 32.4655 30.3625C31.5967 30.3625 30.9273 30.5716 30.4606 30.9923C29.9914 31.4094 29.7011 31.946 29.7011 32.6003C29.7011 33.6056 30.4173 34.4775 31.7397 35.214C32.173 35.4509 32.6047 35.6904 33.0349 35.9327L33.1336 35.9882L33.1831 36.016L33.2819 36.0715L33.3312 36.0993L33.4299 36.155C34.4309 36.7193 35.3729 37.258 35.3729 37.258C36.6951 38.1966 37.3543 39.1974 37.3543 40.8457C37.3543 42.2851 36.8268 43.4667 35.7753 44.3913C34.723 45.3117 33.3094 45.7732 31.5391 45.7732C29.8834 45.7732 28.2787 45.242 26.7244 44.1885L27.4515 42.7306C28.7891 43.401 29.9995 43.7359 31.0865 43.7359C32.1059 43.7359 32.9038 43.5083 33.4811 43.0588C34.0572 42.6061 34.4024 41.9746 34.4024 41.1739C34.4024 40.1662 33.7014 39.3047 32.4154 38.582C32.0128 38.3596 31.6115 38.1351 31.2114 37.9084L31.1129 37.8526C30.9319 37.7503 30.7496 37.6468 30.571 37.5454L30.4742 37.4903C29.6059 36.9964 28.8551 36.5649 28.8551 36.5649C27.5695 35.6245 26.9249 34.6156 26.9249 32.9531C26.9249 31.5782 27.4056 30.4669 28.3656 29.6214C29.3279 28.7741 30.5695 28.3505 32.0898 28.3505V28.3505ZM57.3158 28.5777V43.4624H62.6562V45.5502H54.6072V28.5777H57.3158ZM65.6238 43.4689V43.8217H65.0366V45.5484H64.5877V43.8217H63.9778V43.4689H65.6239H65.6238ZM66.708 43.4689L67.2718 44.8864L67.7896 43.4689H68.426V45.5484H68.0029V43.9658L67.4134 45.5484H67.1084L66.518 43.9658H66.4953V45.5484H66.095V43.4689H66.7081H66.708ZM45.2771 30.4131C42.6862 30.4131 41.39 32.5514 41.39 36.8252C41.39 39.2733 41.7334 41.0484 42.4191 42.1549C43.0542 43.1789 44.0487 43.6899 45.403 43.6899C47.9939 43.6899 49.29 41.5349 49.29 37.227C49.29 34.8132 48.9465 33.0532 48.2617 31.9462C47.6259 30.9245 46.6318 30.4131 45.2772 30.4131H45.2771Z" fill="white"/>
<path d="M38.4859 1.05167C39.3454 -1.06026 42.3507 0.539106 43.5169 1.27683C43.8027 1.46141 44.1306 1.85135 44.4583 1.99548C44.9696 2.01556 45.4804 2.05557 45.9925 2.07694C46.9531 2.30268 47.8529 2.48711 48.6098 2.91821C52.1275 4.98984 54.4174 7.10091 56.5249 10.5879C56.9752 11.3265 57.2003 12.1257 57.5681 12.925C58.0787 14.1163 58.6523 15.3669 59.2449 16.4934C59.5102 17.0275 59.7155 17.6214 60.0839 18.0724C60.2277 18.2787 60.6363 18.3395 60.8806 18.4627C61.5558 18.8122 62.3738 19.0775 63.0088 19.4876C64.1947 20.2271 65.3413 21.1082 66.3837 22.0103C66.7722 22.3585 67.0369 22.8514 67.4071 23.2197V23.4056C67.0785 23.5064 66.7511 23.6097 66.4234 23.6924C65.7076 23.8763 65.0736 23.8347 64.3792 24.0187C63.9501 24.1432 63.4173 24.3074 62.9673 24.3491L63.0088 24.391C63.2736 25.1475 64.706 25.7628 65.3611 26.2152C66.1568 26.7895 66.8941 27.4859 67.4875 28.2857C67.6925 28.4898 67.8974 28.6755 68.1014 28.879C68.2439 29.0853 68.2841 29.352 68.4283 29.5359V29.5981C68.2686 29.5417 68.1537 29.4342 68.0449 29.3217L67.9799 29.2539C67.9149 29.1865 67.8494 29.1202 67.7747 29.0656C67.3232 28.7573 66.8749 28.3884 66.4234 28.1017C65.6472 27.6092 64.747 27.3234 63.9501 26.8291C63.4995 26.5421 63.0699 26.2152 62.6404 25.8868C62.251 25.599 61.8222 25.0463 61.5776 24.6361C61.4334 24.4095 61.4136 24.1432 61.249 23.9793C61.2784 23.7055 61.5292 23.6242 61.7824 23.5573L61.8406 23.542C61.9279 23.5193 62.0134 23.4967 62.088 23.4667C63.1513 23.0152 64.4189 22.8514 66.0558 22.8925C65.9942 22.4814 64.9713 21.9693 64.6448 21.7232C63.9894 21.2508 63.2954 20.7579 62.6001 20.3279C62.2317 20.1028 61.5968 19.9384 61.1886 19.7544C60.6363 19.5287 59.4088 19.3031 59.1028 18.8731C58.5829 18.1953 58.2095 17.3869 57.8469 16.5703L57.7482 16.3474C57.7153 16.2732 57.6824 16.1989 57.6493 16.1247C57.2208 15.1413 56.6884 14.116 56.2589 13.1091C56.0343 12.6179 55.9312 12.1868 55.6852 11.7157C54.1927 8.82475 51.9837 6.40434 49.3054 4.70215C48.4253 4.14828 47.4439 3.63572 46.3605 3.28736C45.7466 3.10193 45.0097 3.20447 44.3556 3.0622H43.9251C43.5576 2.95866 43.2509 2.56914 42.9642 2.36377C42.331 1.93382 41.6968 1.64512 40.9396 1.33836C40.6743 1.21531 39.9166 0.928764 39.6522 1.15436C39.4884 1.19552 39.4053 1.25733 39.365 1.42168C39.2021 1.66692 39.3454 2.03636 39.4468 2.26252C39.754 2.91793 40.1831 3.30744 40.5726 3.86131C40.9191 4.35251 41.3495 4.90637 41.5951 5.44045C42.1252 6.58849 42.372 7.86043 42.8632 9.00833C43.0454 9.44 43.3335 9.9312 43.5987 10.3206C43.8234 10.6296 44.232 10.8531 44.3556 11.2443C44.602 11.6545 43.9867 13.0079 43.8443 13.4377C43.3115 15.1195 43.4148 17.4573 44.0283 18.9151L44.061 18.992L44.0937 19.0699C44.3177 19.6038 44.5575 20.1788 45.1531 20.3281C45.1941 20.2873 45.1531 20.3087 45.2344 20.2873C45.3786 19.1589 45.4192 18.0723 45.8081 17.1894C46.0328 16.6374 46.4816 16.2472 46.7892 15.7966C46.9943 15.9193 46.9943 16.2895 47.1165 16.5344C47.3826 17.1698 47.6685 17.8663 47.9966 18.5035C48.6701 19.8158 49.4279 21.088 50.2865 22.2359C50.5741 22.6459 50.9821 23.0973 51.3501 23.4665C51.514 23.6095 51.6976 23.6921 51.8208 23.8761H51.8609V23.9381C51.2474 23.7119 50.8585 23.0772 50.3691 22.7066C49.4478 22.01 48.3445 20.964 47.7095 19.9602C47.4439 19.384 47.1568 18.8317 46.8705 18.2583V18.2168C46.7482 18.3806 46.7892 18.5433 46.728 18.7911C46.4624 19.8158 46.6669 20.9848 45.7466 21.3533C44.7034 21.785 43.9252 20.6568 43.5987 20.1441C42.5552 18.4423 42.2693 15.5714 43.0052 13.254C43.1687 12.741 43.1909 12.1257 43.4763 11.7161C43.4146 11.3458 43.1293 11.2446 42.9642 11.0177C42.6779 10.6299 42.4328 10.1782 42.2087 9.74749C41.7781 8.90621 41.4718 7.90102 41.145 6.9988C41.0013 6.63036 40.9601 6.2605 40.8168 5.91171C40.5725 5.37936 40.122 4.84528 39.7745 4.37431C39.3039 3.69739 37.9335 2.38543 38.4859 1.05167V1.05167ZM45.1937 5.06944C45.2483 5.12422 45.3143 5.17212 45.3826 5.21931L45.4649 5.27581C45.5746 5.35182 45.6809 5.43185 45.746 5.54084C45.8493 5.68512 45.8685 5.82753 45.9921 5.97209C45.9921 6.46501 45.8493 6.79271 45.5608 6.99693C45.5608 6.99693 45.5412 7.01844 45.521 7.03852C45.3575 6.70996 45.2142 6.38312 45.0496 6.05484C44.8468 5.7683 44.5601 5.54099 44.3949 5.21357H44.3552V5.17241C44.602 5.11146 44.8468 5.06944 45.1937 5.06944Z" fill="#273759"/>
</svg>
