<svg width="83" height="50" viewBox="0 0 83 50" fill="none" xmlns="http://www.w3.org/2000/svg">
<path d="M19.5559 13.0407H35.1878V14.2832H20.9889V23.6342H34.3412V24.8766H20.9889V35.1431H35.3506V36.3855H19.5559V13.0407ZM36.5883 13.0407H38.2491L45.609 23.3072L53.1318 13.0405L63.364 0L46.5534 24.3863L55.2161 36.3855H53.49L45.609 25.4651L37.6953 36.3855H36.002L44.7297 24.3861L36.5881 13.0407H36.5883ZM55.8347 14.2832V13.0405H73.6486V14.2831H65.4418V36.3853H64.0089V14.2832H55.8347V14.2832ZM0 13.0405H1.79113L26.4898 50L16.2832 36.3853L1.49798 14.8063L1.43291 36.3856H0V13.0405ZM73.5042 34.7679C73.2114 34.7679 72.9919 34.5412 72.9919 34.2479C72.9919 33.9549 73.2114 33.728 73.5042 33.728C73.8004 33.728 74.0165 33.9548 74.0165 34.2479C74.0165 34.5411 73.8004 34.7679 73.5042 34.7679ZM74.9122 33.4H75.679C75.6893 33.8152 75.9925 34.0945 76.4387 34.0945C76.9371 34.0945 77.2194 33.7943 77.2194 33.2325V29.6729H78.0001V33.2359C78.0001 34.2479 77.4146 34.8308 76.4456 34.8308C75.5359 34.8308 74.9122 34.2654 74.9122 33.3999V33.4ZM79.0212 33.3547H79.7949C79.8611 33.8327 80.3282 34.1362 81.0009 34.1362C81.6282 34.1362 82.0882 33.8117 82.0882 33.3651C82.0882 32.9813 81.7954 32.7509 81.1297 32.5939L80.4814 32.4369C79.5717 32.2239 79.1572 31.7842 79.1572 31.0444C79.1572 30.1477 79.889 29.5508 80.9868 29.5508C82.0079 29.5508 82.7538 30.1475 82.7992 30.9956H82.0393C81.9662 30.5315 81.5618 30.2417 80.9763 30.2417C80.3596 30.2417 79.9484 30.5384 79.9484 30.992C79.9484 31.3514 80.2131 31.5574 80.8683 31.7109L81.4224 31.847C82.454 32.0879 82.8793 32.5066 82.8793 33.2639C82.8793 34.227 82.1335 34.8308 80.9417 34.8308C79.8263 34.8308 79.0769 34.2549 79.0212 33.3545V33.3547Z" fill="#273759"/>
</svg>
